<svg style="height: 512px; width: 512px;" xmlns="http://www.w3.org/2000/svg" viewBox="0 0 512 512"><defs><filter id="shadow-1" height="300%" width="300%" x="-100%" y="-100%"><feFlood flood-color="#999" result="flood"></feFlood><feComposite in="flood" in2="SourceGraphic" operator="atop" result="composite"></feComposite><feGaussianBlur in="composite" stdDeviation="3" result="blur"></feGaussianBlur><feOffset dx="10" dy="5" result="offset"></feOffset><feComposite in="SourceGraphic" in2="offset" operator="over"></feComposite></filter></defs><g class="" style="touch-action: none;" transform="translate(0,0)"><path d="M208 56.643l-16 64-98.568 14.082L256 175.365l162.568-40.64L320 120.643l-16-64-27.268 18.18-12.002 48.003h-17.46l-12.002-48.004zm-138.621 90.62L16 200.644l48 64 25.77-25.77 26.619-79.857zm373.242 0l-47.01 11.753 26.62 79.857L448 264.643l48-64zm-308.717 16.132l-20.123 60.369 13.81 55.246L247 345.348V191.67zm244.192 0L265 191.67v153.678l119.408-66.338 13.81-55.246zM144 308.715v56.314l103 30.627v-29.719zm224 0l-103 57.223v29.718l103-30.627zm-224 75.54v56.388l103 14.714V414.88zm224 0L265 414.88v40.478l103-14.714z" fill="#c9c9c9" fill-opacity="1" stroke="#000000" stroke-opacity="1" stroke-width="8" filter="url(#shadow-1)"></path></g></svg>